<?xml version="1.0" encoding="utf-8"?>
<svg version="1.1" xmlns:xlink="http://www.w3.org/1999/xlink" width="20px" height="20px" xmlns="http://www.w3.org/2000/svg">
  <g transform="matrix(1 0 0 1 -639 -390 )">
    <path d="M 649 390  C 654.6 390  659 394.4  659 400  C 659 405.6  654.6 410  649 410  C 643.4 410  639 405.6  639 400  C 639 394.4  643.4 390  649 390  Z " fill-rule="nonzero" fill="#ffffff" stroke="none" />
    <path d="M 649 390.5  C 654.32 390.5  658.5 394.68  658.5 400  C 658.5 405.32  654.32 409.5  649 409.5  C 643.68 409.5  639.5 405.32  639.5 400  C 639.5 394.68  643.68 390.5  649 390.5  Z " stroke-width="1" stroke="#494949" fill="none" />
  </g>
</svg>