<svg width="88" height="69" viewBox="0 0 88 69" fill="none" xmlns="http://www.w3.org/2000/svg">
<path d="M22.77 36.84C22.81 35.46 22.62 34.68 22.2 34.5C21.94 34.38 21.63 34.61 21.27 35.19C21.13 35.39 20.97 35.63 20.79 35.91C20.63 36.19 20.44 36.51 20.22 36.87C19.76 37.61 19.28 38.23 18.78 38.73C18.3 39.21 17.3 39.77 15.78 40.41C14.26 41.05 13.33 41.54 12.99 41.88C13.23 42.18 13.79 42.38 14.67 42.48C15.43 42.56 16.79 42.59 18.75 42.57C20.73 42.55 23.29 42.47 26.43 42.33C29.71 42.19 32.59 42.09 35.07 42.03C37.55 41.95 39.62 41.92 41.28 41.94C42.32 41.94 42.6 42.38 42.12 43.26L41.49 44.46C41.15 45.12 40.72 45.45 40.2 45.45C38.5 45.45 36.54 45.47 34.32 45.51C32.12 45.57 29.67 45.66 26.97 45.78C24.27 45.9 21.95 45.99 20.01 46.05C18.09 46.11 16.54 46.13 15.36 46.11C13.02 46.07 11.58 45.61 11.04 44.73C10.78 44.29 10.71 43.82 10.83 43.32C11.15 42.22 11.52 41.28 11.94 40.5C12.38 39.7 12.88 39.05 13.44 38.55C13.9 38.15 14.81 37.7 16.17 37.2C17.47 36.72 18.35 36.3 18.81 35.94C19.25 35.58 19.67 35.02 20.07 34.26C21.29 31.8 22.39 30.68 23.37 30.9C24.15 31.08 24.46 32.08 24.3 33.9C24.28 34.34 24.22 34.81 24.12 35.31C24.04 35.81 23.94 36.33 23.82 36.87C23.74 37.29 23.56 37.5 23.28 37.5C22.94 37.5 22.77 37.28 22.77 36.84ZM72.4852 36.75C71.4652 36.21 70.0752 36.4 68.3152 37.32C66.8952 38.06 66.0352 38.97 65.7352 40.05C65.6952 40.21 65.7052 40.37 65.7652 40.53C66.1252 41.31 67.3952 41.76 69.5752 41.88C71.7552 42 72.9052 42.54 73.0252 43.5C73.2852 45.4 72.8752 46.79 71.7952 47.67C68.8152 50.05 65.4652 51.31 61.7452 51.45C57.0852 51.63 54.6052 49.89 54.3052 46.23C54.1652 44.39 54.5752 42.47 55.5352 40.47C56.0752 39.37 56.6652 38.41 57.3052 37.59C57.6052 37.19 57.8652 37.1 58.0852 37.32C58.3052 37.54 58.2452 37.89 57.9052 38.37C56.1652 40.93 55.6152 43.05 56.2552 44.73C57.0752 46.81 58.9952 47.82 62.0152 47.76C65.5752 47.7 68.5052 46.8 70.8052 45.06C70.3452 44.9 69.3652 44.77 67.8652 44.67C65.8852 44.51 64.7252 43.93 64.3852 42.93C64.0252 41.89 64.0452 40.8 64.4452 39.66C65.3252 37.18 66.6852 35.27 68.5252 33.93C70.0652 32.81 71.4352 32.4 72.6352 32.7C73.7952 33 74.1252 34.09 73.6252 35.97C73.4052 36.77 73.0252 37.03 72.4852 36.75Z" fill="#BABCBD"/>
<path d="M55.9209 12.4347L46.8607 2.10025C46.0073 1.12729 44.776 0.569305 43.4819 0.569305C42.1877 0.569305 40.9561 1.12729 40.1031 2.10025L31.0428 12.4347H6.08073C3.17201 12.4347 0.805641 14.8011 0.805641 17.7098V62.7645C0.805641 65.6732 3.17201 68.0396 6.08073 68.0396H81.9197C84.8284 68.0396 87.1947 65.6732 87.1947 62.7645V17.7098C87.1947 14.8011 84.8284 12.4347 81.9197 12.4347H55.9209ZM81.3335 62.1784H6.66646V18.2959H31.6625C32.9567 18.2959 34.1883 17.7376 35.0413 16.7646L43.4815 7.13699L51.9212 16.7634C52.7742 17.7372 54.0063 18.2956 55.3008 18.2956H81.3332V62.1784H81.3335Z" fill="#BABCBD"/>
</svg>
