<svg width="18" height="53" viewBox="0 0 18 53" fill="none" xmlns="http://www.w3.org/2000/svg">
<path d="M8.9999 39.1739C5.40418 39.1739 2.47816 42.0999 2.47816 45.6956C2.47816 49.2913 5.40418 52.2173 8.9999 52.2173C12.5956 52.2173 15.5216 49.2913 15.5216 45.6956C15.5216 42.0999 12.5956 39.1739 8.9999 39.1739ZM8.9999 47.8696C7.7999 47.8696 6.82592 46.8913 6.82592 45.6956C6.82592 44.4999 7.7999 43.5216 8.9999 43.5216C10.1999 43.5216 11.1739 44.4999 11.1739 45.6956C11.1739 46.8913 10.1999 47.8696 8.9999 47.8696Z" fill="#BABCBD"/>
<path d="M15.9478 2.12168C14.7174 0.800008 12.9782 0.0434875 11.1739 0.0434875H6.82613C5.02185 0.0434875 3.28707 0.800008 2.0565 2.12168C0.82613 3.43907 0.195558 5.22602 0.321713 7.06087L2.16084 28.4825C2.41295 32.0391 5.40439 34.8259 8.9999 34.8259C12.565 34.8259 15.5565 32.0389 15.8043 28.5172L17.6783 7.0303C17.8087 5.23051 17.1782 3.44355 15.9478 2.12168ZM13.3479 6.68689L11.4696 28.1782C11.3783 29.4696 10.2914 30.4782 8.96525 30.4782C7.66967 30.4782 6.58706 29.4696 6.49128 28.1434L4.65643 6.72174C4.61302 6.1087 4.81723 5.52602 5.23462 5.08255C5.65201 4.63907 6.21716 4.39124 6.82592 4.39124H11.1739C11.7826 4.39124 12.3478 4.63907 12.7652 5.08255C13.1826 5.52602 13.387 6.1087 13.3479 6.68689Z" fill="#BABCBD"/>
</svg>
